<svg width="12" height="12" viewBox="0 0 12 12" fill="none" xmlns="http://www.w3.org/2000/svg">
<path d="M6.00001 0C4.81332 0 3.65328 0.351894 2.66658 1.01118C1.67989 1.67047 0.910852 2.60754 0.456726 3.7039C0.00259972 4.80026 -0.11622 6.00666 0.115291 7.17055C0.346803 8.33443 0.918248 9.40353 1.75736 10.2426C2.59648 11.0818 3.66558 11.6532 4.82946 11.8847C5.99335 12.1162 7.19975 11.9974 8.29611 11.5433C9.39247 11.0892 10.3295 10.3201 10.9888 9.33343C11.6481 8.34673 12 7.18669 12 6C11.9983 4.40923 11.3656 2.88411 10.2408 1.75926C9.1159 0.634415 7.59078 0.00172054 6.00001 0ZM6.00001 11C5.0111 11 4.0444 10.7068 3.22215 10.1574C2.39991 9.60795 1.75904 8.82705 1.38061 7.91342C1.00217 6.99979 0.903151 5.99446 1.09608 5.02455C1.289 4.05465 1.76521 3.16373 2.46447 2.46447C3.16373 1.76521 4.05465 1.289 5.02456 1.09607C5.99446 0.903148 6.99979 1.00217 7.91343 1.3806C8.82706 1.75904 9.60795 2.39991 10.1574 3.22215C10.7068 4.0444 11 5.0111 11 6C10.9986 7.32564 10.4713 8.59657 9.53394 9.53393C8.59657 10.4713 7.32564 10.9986 6.00001 11Z" fill="#511D1D"/>
<path d="M5.99924 3C5.86663 3 5.73946 3.05268 5.64569 3.14645C5.55192 3.24022 5.49924 3.36739 5.49924 3.5V5.6625L3.81374 6.7185C3.70102 6.78892 3.6209 6.90123 3.59098 7.03072C3.56107 7.16021 3.58383 7.29629 3.65424 7.409C3.72466 7.52172 3.83696 7.60185 3.96646 7.63176C4.09595 7.66167 4.23202 7.63892 4.34474 7.5685L6.26474 6.3685C6.33729 6.32305 6.39694 6.25973 6.438 6.18462C6.47906 6.1095 6.50015 6.0251 6.49924 5.9395V3.5C6.49924 3.36739 6.44656 3.24022 6.3528 3.14645C6.25903 3.05268 6.13185 3 5.99924 3Z" fill="#511D1D"/>
</svg>
