<svg width="15" height="15" viewBox="0 0 15 15" fill="none" xmlns="http://www.w3.org/2000/svg">
<path d="M12.4375 1.93318C12.3607 1.603 12.2174 1.29189 12.0166 1.01878C11.8157 0.745678 11.5614 0.516277 11.2691 0.344532C10.9768 0.172787 10.6526 0.0622878 10.3162 0.0197537C9.97987 -0.0227804 9.63837 0.00353978 9.3125 0.0971135L8.235 0.405208C7.96205 0.48365 7.71064 0.623448 7.5 0.813917C7.28936 0.623448 7.03795 0.48365 6.765 0.405208L5.6875 0.0971135C5.36183 0.00402748 5.02065 -0.0219174 4.68465 0.0208535C4.34865 0.0636245 4.02485 0.174219 3.73289 0.345925C3.44094 0.517631 3.18693 0.746866 2.98627 1.01972C2.78562 1.29257 2.64251 1.60334 2.56562 1.93318C1.84675 2.06396 1.19643 2.44248 0.727708 3.00295C0.258986 3.56342 0.00149749 4.2704 0 5.001L0 9.37556C0.000992411 10.204 0.330551 10.9982 0.916387 11.584C1.50222 12.1697 2.2965 12.4993 3.125 12.5002H6.875V13.7501H5C4.83424 13.7501 4.67527 13.816 4.55806 13.9332C4.44085 14.0504 4.375 14.2093 4.375 14.3751C4.375 14.5408 4.44085 14.6998 4.55806 14.817C4.67527 14.9342 4.83424 15 5 15H10C10.1658 15 10.3247 14.9342 10.4419 14.817C10.5592 14.6998 10.625 14.5408 10.625 14.3751C10.625 14.2093 10.5592 14.0504 10.4419 13.9332C10.3247 13.816 10.1658 13.7501 10 13.7501H8.125V12.5002H11.875C12.7035 12.4993 13.4978 12.1697 14.0836 11.584C14.6694 10.9982 14.999 10.204 15 9.37556V5.001C14.9986 4.27084 14.7416 3.56422 14.2735 3.00381C13.8054 2.44341 13.1558 2.06461 12.4375 1.93318ZM8.125 2.20815C8.12506 2.07243 8.16931 1.94041 8.25106 1.83206C8.33281 1.72371 8.44762 1.64491 8.57812 1.60759L9.65625 1.29949C9.8423 1.24628 10.0382 1.23699 10.2284 1.27235C10.4187 1.30771 10.5981 1.38675 10.7526 1.50325C10.9071 1.61976 11.0325 1.77054 11.1188 1.94372C11.2051 2.1169 11.25 2.30775 11.25 2.50125V4.96225C11.2491 5.23345 11.1603 5.49705 10.9969 5.7135C10.8335 5.92996 10.6043 6.08759 10.3438 6.16276L8.125 6.79644V2.20815ZM4.25 1.50135C4.40421 1.38527 4.58328 1.30661 4.77309 1.27158C4.96291 1.23655 5.15826 1.2461 5.34375 1.29949L6.42188 1.60759C6.55238 1.64491 6.66719 1.72371 6.74894 1.83206C6.83069 1.94041 6.87494 2.07243 6.875 2.20815V6.79644L4.65625 6.16276C4.39565 6.08759 4.16646 5.92996 4.00306 5.7135C3.83966 5.49705 3.75087 5.23345 3.75 4.96225V2.50125C3.74936 2.3071 3.79427 2.11551 3.8811 1.94186C3.96794 1.7682 4.09428 1.61733 4.25 1.50135ZM13.75 9.37556C13.75 9.87279 13.5525 10.3497 13.2008 10.7013C12.8492 11.0529 12.3723 11.2504 11.875 11.2504H3.125C2.62772 11.2504 2.15081 11.0529 1.79917 10.7013C1.44754 10.3497 1.25 9.87279 1.25 9.37556V5.001C1.2516 4.61462 1.37255 4.23818 1.5963 3.92317C1.82006 3.60816 2.13568 3.36996 2.5 3.24117V4.96225C2.50153 5.50491 2.67901 6.03244 3.00581 6.46569C3.33261 6.89893 3.7911 7.21454 4.3125 7.36514L6.46937 7.98195C7.14345 8.17408 7.8578 8.17408 8.53187 7.98195L10.6887 7.36514C11.2099 7.21431 11.6681 6.89861 11.9947 6.46538C12.3212 6.03216 12.4985 5.50475 12.5 4.96225V3.24117C12.8643 3.36996 13.1799 3.60816 13.4037 3.92317C13.6274 4.23818 13.7484 4.61462 13.75 5.001V9.37556Z" fill="#9B5959"/>
</svg>
