<svg width="14" height="15" viewBox="0 0 14 15" fill="none" xmlns="http://www.w3.org/2000/svg">
<g clip-path="url(#clip0_198_3751)">
<path d="M13.6582 9.88583C13.6582 9.88583 8.56333 7.57 8.54525 7.56417C8.12058 7.4195 7.65975 7.52625 7.34242 7.84358C7.02508 8.16092 6.91833 8.62175 7.08458 9.09833L9.38525 14.1588C9.478 14.3635 9.68042 14.4965 9.90558 14.5006H9.91667C10.1372 14.5006 10.3396 14.3757 10.4388 14.178L11.5185 12.0185L13.678 10.9388C13.8792 10.8378 14.0047 10.6313 14.0006 10.4062C13.9965 10.1816 13.8635 9.97917 13.6588 9.88583H13.6582ZM10.8226 11.0618C10.71 11.1184 10.6178 11.21 10.5618 11.3226L9.94117 12.5639L8.1655 8.66958L12.0627 10.4417L10.8232 11.0612L10.8226 11.0618ZM7.532 13.31C7.43167 13.3187 7.33075 13.3252 7.22867 13.3292C6.839 12.9437 5.82283 11.8604 5.11467 10.4172H5.54167C5.86367 10.4172 6.125 10.1565 6.125 9.83392C6.125 9.51133 5.86367 9.25058 5.54167 9.25058H4.64917C4.47942 8.69525 4.375 8.10725 4.375 7.50058C4.375 6.89392 4.48 6.3065 4.65033 5.75058H9.35025C9.41908 5.97633 9.47742 6.20733 9.52233 6.443C9.583 6.75975 9.88925 6.96858 10.2042 6.90675C10.5204 6.84667 10.7281 6.541 10.668 6.22483C10.6377 6.06442 10.6015 5.90633 10.5612 5.75058H12.5405C12.5481 5.75058 12.5562 5.75058 12.5638 5.75058C12.7382 6.30358 12.8322 6.89158 12.8322 7.50117C12.8322 7.68025 12.824 7.857 12.8083 8.032C12.7797 8.35283 13.0159 8.63633 13.3368 8.6655C13.6587 8.697 13.9417 8.45783 13.9702 8.137C13.9889 7.92758 13.9988 7.71525 13.9988 7.50117C14 3.64008 10.8599 0.5 7 0.5C3.14008 0.5 0 3.64008 0 7.5C0 11.3599 3.14008 14.5 6.99942 14.5C7.2135 14.5 7.42525 14.4901 7.63408 14.4714C7.95492 14.4428 8.19233 14.1599 8.16375 13.8385C8.13517 13.5182 7.85283 13.2814 7.53142 13.3094L7.532 13.31ZM3.437 9.25058H1.45833C1.45075 9.25058 1.44317 9.25058 1.435 9.25058C1.26058 8.69758 1.16667 8.10958 1.16667 7.5C1.16667 6.89042 1.26058 6.30242 1.435 5.74942C1.44258 5.74942 1.45017 5.74942 1.45833 5.74942H3.437C3.29408 6.3065 3.20833 6.89217 3.20833 7.49942C3.20833 8.10667 3.2935 8.69233 3.437 9.24942V9.25058ZM5.11758 4.58392C5.71317 3.37233 6.52633 2.41158 7.00117 1.90758C7.47658 2.411 8.28975 3.37 8.88533 4.58392H5.11758ZM12.0505 4.58392H10.1675C9.70608 3.48375 9.06617 2.54925 8.5155 1.86733C10.0199 2.27275 11.2858 3.26558 12.0505 4.58392ZM5.48333 1.86733C4.93267 2.54925 4.29217 3.48375 3.83133 4.58333H1.9495C2.71367 3.265 3.97892 2.27217 5.48333 1.86733ZM1.9495 10.4167H3.83133C4.29217 11.5168 4.93267 12.4507 5.48333 13.1327C3.9795 12.7273 2.71425 11.7344 1.9495 10.4167Z" fill="#9B5959"/>
</g>
<defs>
<clipPath id="clip0_198_3751">
<rect width="14" height="14" fill="white" transform="translate(0 0.5)"/>
</clipPath>
</defs>
</svg>
